# xmcd
#
# Track frame offsets:
#	150
#	20101
#	36449
#	54276
#	68754
#	86929
#	100414
#	113645
#	127965
#	145068
#	164253
#	178783
#	195091
#	209625
#	223047
#	239487
#	254710
#	268332
#	285313
#	299993
#	314227
#	331501
#
# Disc length: 4635 seconds
#
# Revision: 1
# Processed by: cddbd v1.5.2PL0 Copyright (c) Steve Scherf et al.
# Submitted via: dBpowerAMP V4.0
#
DISCID=63121916
DTITLE=Various Artist - ERG Nu Country Traxx Vol. 194 CAN
DYEAR=2010
DGENRE=Country
TTITLE0=Kenny Chesney - The Boys Of Fall
TTITLE1=George Strait - The Breath You Take
TTITLE2=Darius Rucker - Come Back Song
TTITLE3=Dean Brody - Roll That Barrell Out
TTITLE4=Carrie Underwood - Mama's Song
TTITLE5=Jake Mathews - If I Had It My Way
TTITLE6=Toby Keith - Trailerhood
TTITLE7=Joe Nichols - The Shape I'm In
TTITLE8=Steel Magnolia - Just Being You (Halo And Wings)
TTITLE9=Brad Paisley - Anything Like Me
TTITLE10=Jo Hikk - The Big Spoon
TTITLE11=Train - Hey, Soul Sister [Country Mix]
TTITLE12=George Canyon - Pretty Drunk Out Tonight
TTITLE13=Hey Romeo - That's What I Am
TTITLE14=Reba - Turn On The Radio
TTITLE15=Trace Adkins - This Ain't No Love Song
TTITLE16=Justin Moore - How I Got To Be This Way
TTITLE17=Band Perry, The - If I Die Young
TTITLE18=Bomshel - Just Fine
TTITLE19=Thompson Square - Are You Gonna Kiss Me Or Not
TTITLE20=Codie Prevost - Rolling Back To You
TTITLE21=Julianne Hough - Is That So Wrong
EXTD=
EXTT0=
EXTT1=
EXTT2=
EXTT3=
EXTT4=
EXTT5=
EXTT6=
EXTT7=
EXTT8=
EXTT9=
EXTT10=
EXTT11=
EXTT12=
EXTT13=
EXTT14=
EXTT15=
EXTT16=
EXTT17=
EXTT18=
EXTT19=
EXTT20=
EXTT21=
PLAYORDER=
